<svg xmlns="http://www.w3.org/2000/svg" width="512" height="512" viewBox="0 0 512 512" version="1.1"><path d="M 43.762 1.942 C 29.272 6.574, 16.851 19.319, 12.585 33.932 C 10.323 41.683, 10.299 77.386, 12.553 82.782 C 16.176 91.456, 23.707 96.105, 35.250 96.794 L 43 97.257 43.010 286.878 L 43.020 476.500 45.377 481.500 C 48.187 487.458, 50.952 490.174, 57 492.916 C 61.457 494.937, 62.780 494.956, 195.500 494.975 L 329.500 494.994 340.500 500.474 C 346.550 503.487, 355.550 507.178, 360.500 508.676 C 368.820 511.193, 370.822 511.399, 387 511.399 C 403.240 511.399, 405.141 511.201, 413.400 508.660 C 456.800 495.307, 486.715 460.167, 498.178 409.077 C 500.167 400.212, 500.357 396.063, 500.734 353.250 C 501.083 313.659, 500.919 306.234, 499.597 301.686 C 496.632 291.486, 488.760 283.788, 478.040 280.605 C 471.432 278.642, 467.042 278.583, 460.175 280.365 L 454.914 281.729 453.533 278.425 C 451.522 273.612, 444.509 266.425, 439.419 263.961 L 435 261.822 434.969 155.161 C 434.952 94.998, 434.531 45.363, 434.003 41.303 C 431.607 22.860, 417.905 6.826, 400.068 1.593 C 395.188 0.162, 377.124 0.005, 222.068 0.054 C 57.532 0.105, 49.233 0.193, 43.762 1.942 M 49.718 21.437 C 41.470 24.379, 35.381 30.465, 32.444 38.698 C 31.523 41.280, 31.074 47.704, 31.044 58.715 C 31.003 73.747, 31.141 75.005, 32.934 75.965 C 34.208 76.647, 56.087 77, 97.011 77 L 159.154 77 162.202 80.048 C 164.883 82.729, 165.184 83.590, 164.701 87.195 C 164.398 89.449, 163.205 92.240, 162.048 93.397 C 159.984 95.462, 159.068 95.509, 111.723 96 L 63.500 96.500 63.247 284.394 C 63.062 422.443, 63.293 472.648, 64.120 473.644 C 65.055 474.772, 85.631 475, 186.207 475 L 307.169 475 301.762 468.750 C 290.953 456.255, 225.468 371.366, 222.885 366.500 C 219.148 359.461, 217.621 351.966, 218.344 344.214 C 219.555 331.251, 228.629 317.785, 239.875 312.262 C 244.686 309.900, 246.730 309.501, 254 309.510 C 266.981 309.526, 270.870 311.877, 288.388 330.304 L 302.500 345.149 303 261.324 L 303.500 177.500 305.757 172.969 C 309.468 165.520, 313.631 161.307, 320.738 157.808 C 326.510 154.967, 328.417 154.529, 334.952 154.549 C 347.763 154.586, 358.378 160.961, 363.710 171.818 L 366.500 177.500 366.800 210.838 C 367.079 241.757, 367.224 244.124, 368.800 243.462 C 369.735 243.069, 373.875 242.536, 378 242.276 C 391.077 241.453, 401.752 247.264, 407.567 258.371 C 409.985 262.990, 410.708 263.692, 412.215 262.885 C 413.912 261.977, 414 256.493, 414 152.091 C 414 31.554, 414.317 37.976, 407.976 29.969 C 403.749 24.632, 394.243 20, 387.518 20 C 376.474 20, 367.220 25.763, 362.381 35.654 C 359.751 41.029, 359.616 42.074, 359.043 61.378 C 358.398 83.120, 358.003 84.817, 352.339 90.197 C 346.188 96.040, 346.604 96, 291.966 96 C 259.519 96, 241.191 95.637, 239.945 94.970 C 234.551 92.084, 233.815 82.864, 238.672 79.043 C 241.206 77.050, 242.446 77, 289.063 77 C 331.179 77, 337.044 76.813, 338.429 75.429 C 339.737 74.120, 340 70.937, 340 56.397 C 340 37.806, 341.057 32.102, 346.079 23.591 L 348.198 20 200.849 20.044 C 79.800 20.080, 52.825 20.329, 49.718 21.437 M 193.672 79.043 C 190.285 81.707, 189.318 86.781, 191.422 90.849 C 195.919 99.546, 208.369 97.125, 209.687 87.297 C 210.186 83.573, 209.904 82.750, 207.202 80.048 C 203.446 76.292, 197.711 75.866, 193.672 79.043 M 115.558 133.492 C 110.025 135.463, 106.966 137.986, 104.569 142.557 C 102.690 146.138, 102.472 148.535, 102.197 168.697 C 101.861 193.338, 102.420 197.131, 107.191 202.564 C 112.745 208.890, 113.312 209, 140.482 209 C 167.821 209, 169.416 208.707, 174.682 202.709 C 179.387 197.351, 180.263 191.281, 179.819 167.115 C 179.400 144.271, 179.069 142.901, 172.578 137.203 C 170.640 135.501, 167.355 133.637, 165.277 133.060 C 159.412 131.431, 120.391 131.770, 115.558 133.492 M 207.383 133.583 C 201.375 136.547, 200.145 144.299, 204.923 149.077 L 207.846 152 251.346 152 L 294.847 152 297.814 149.503 C 301.593 146.324, 302.428 142.960, 300.553 138.472 C 297.891 132.101, 297.095 131.997, 251.282 132.023 C 216.637 132.042, 210.031 132.277, 207.383 133.583 M 122.228 170.750 L 122.500 189.500 141 189.500 L 159.500 189.500 159.772 170.750 L 160.044 152 141 152 L 121.956 152 122.228 170.750 M 329.315 175.464 C 322.689 178.345, 323.001 173.628, 322.994 271.200 C 322.991 328.855, 322.630 360.791, 321.956 363.219 C 319.847 370.813, 313.304 375.297, 306.736 373.649 C 301.725 372.391, 294.777 366.327, 279.534 349.907 C 270.753 340.447, 262.203 331.875, 260.534 330.858 C 249.860 324.348, 236.644 335.907, 238.345 350.264 C 238.670 353.008, 239.691 356.434, 240.614 357.876 C 241.537 359.319, 258.521 381.425, 278.356 407 C 323.979 465.826, 331.990 474.053, 353.381 484.045 C 365.983 489.931, 372.638 491.389, 387 491.410 C 397.010 491.425, 401.094 490.977, 407.500 489.162 C 428.546 483.200, 446.769 469.643, 459.470 450.500 C 468.662 436.646, 474.049 423.572, 478.138 405.199 C 480.116 396.312, 480.333 391.933, 480.731 352.915 C 481.204 306.430, 481.066 305.055, 475.563 301.449 C 472.299 299.311, 466.071 299.089, 462.529 300.985 C 457.779 303.527, 456.644 307.222, 456.046 322.101 C 455.439 337.211, 455.003 338.319, 448.956 340.131 C 445.684 341.112, 444.684 341, 441.825 339.336 C 436.723 336.367, 436.120 333.212, 436.056 309.150 L 436 287.800 432.600 284.400 C 429.625 281.425, 428.565 281, 424.116 281 C 419.913 281, 418.466 281.505, 415.766 283.916 L 412.500 286.832 412 310.896 L 411.500 334.959 408.750 337.707 C 404.657 341.796, 398.807 341.587, 394.898 337.211 L 392 333.968 392 302.952 C 392 278.408, 391.703 271.226, 390.579 268.534 C 387.268 260.611, 374.219 259.613, 369.264 266.904 C 367.685 269.227, 367.468 272.900, 367.198 301.864 C 366.861 337.986, 366.846 338.067, 360.052 340.103 C 356.978 341.024, 355.757 340.925, 353.084 339.543 C 346.835 336.312, 347 338.553, 347 256.982 C 347 174.806, 347.277 178.267, 340.466 175.421 C 336.260 173.664, 333.428 173.675, 329.315 175.464 M 204.923 192.923 C 202.759 195.087, 202 196.795, 202 199.500 C 202 202.205, 202.759 203.913, 204.923 206.077 L 207.846 209 242.989 209 C 266.250 209, 278.814 208.635, 280.150 207.920 C 283.394 206.184, 285.314 200.482, 283.999 196.496 C 281.852 189.992, 281.901 190, 242.958 190 L 207.846 190 204.923 192.923 M 105.789 249.898 C 101.412 253.808, 101.204 259.658, 105.295 263.750 L 108.045 266.500 188.500 266.500 L 268.955 266.500 271.705 263.750 C 275.796 259.658, 275.588 253.808, 271.211 249.898 L 267.968 247 188.500 247 L 109.032 247 105.789 249.898 M 109.021 305.116 C 105.332 306.588, 103.189 308.865, 102.488 312.057 C 101.674 315.763, 104.325 321.371, 107.595 322.861 C 109.343 323.658, 123.328 324, 154.124 324 L 198.154 324 201.077 321.077 C 204.226 317.928, 205.006 312.749, 202.920 308.850 C 200.461 304.256, 197.763 303.996, 153.282 304.063 C 128.227 304.101, 110.507 304.523, 109.021 305.116 M 105.686 364.415 C 102.368 367.490, 101.435 371.222, 103.025 375.059 C 105.534 381.117, 104.631 381, 148.768 381 L 189.091 381 191.545 378.545 C 195.959 374.132, 194.737 365.568, 189.343 363.110 C 187.689 362.357, 174.280 362, 147.599 362 L 108.292 362 105.686 364.415 M 105.815 421.874 C 101.411 425.809, 101.193 431.647, 105.295 435.750 L 108.045 438.500 165.609 438.500 L 223.173 438.500 225.587 435.694 C 228.860 431.889, 228.860 426.112, 225.587 422.306 L 223.174 419.500 166.130 419.226 L 109.085 418.952 105.815 421.874" stroke="none" fill="#000000" fill-rule="evenodd"/><path d="M 339.407 58 C 339.407 67.075, 339.559 70.787, 339.744 66.250 C 339.929 61.712, 339.929 54.288, 339.744 49.750 C 339.559 45.212, 339.407 48.925, 339.407 58 M 359.405 62.500 C 359.406 71.300, 359.559 74.766, 359.745 70.203 C 359.930 65.639, 359.929 58.439, 359.742 54.203 C 359.555 49.966, 359.404 53.700, 359.405 62.500 M 64.750 76.749 C 81.937 76.903, 110.062 76.903, 127.250 76.749 C 144.438 76.596, 130.375 76.470, 96 76.470 C 61.625 76.470, 47.562 76.596, 64.750 76.749 M 198.250 76.689 C 199.213 76.941, 200.787 76.941, 201.750 76.689 C 202.713 76.438, 201.925 76.232, 200 76.232 C 198.075 76.232, 197.287 76.438, 198.250 76.689 M 265.819 76.749 C 279.195 76.907, 300.795 76.907, 313.819 76.749 C 326.844 76.591, 315.900 76.462, 289.500 76.462 C 263.100 76.463, 252.444 76.592, 265.819 76.749 M 63.462 97.250 C 63.201 97.938, 63.104 182.875, 63.246 286 L 63.505 473.500 63.753 285.260 L 64 97.020 110.750 96.750 L 157.500 96.480 110.719 96.240 C 74.036 96.052, 63.835 96.270, 63.462 97.250 M 266.681 96.749 C 279.980 96.906, 302.030 96.907, 315.681 96.749 C 329.331 96.592, 318.450 96.463, 291.500 96.463 C 264.550 96.463, 253.381 96.592, 266.681 96.749 M 122.228 170.750 L 122.500 189.500 141 189.500 L 159.500 189.500 159.772 170.750 L 160.044 152 141 152 L 121.956 152 122.228 170.750 M 367.211 214.750 C 367.095 230.838, 367.337 244, 367.750 244.001 C 368.163 244.002, 368.385 235.339, 368.244 224.751 C 367.766 188.763, 367.422 185.433, 367.211 214.750 M 226.186 189.748 C 235.363 189.913, 250.663 189.913, 260.186 189.749 C 269.709 189.584, 262.200 189.449, 243.500 189.449 C 224.800 189.449, 217.009 189.583, 226.186 189.748 M 129.250 209.747 C 135.712 209.921, 146.287 209.921, 152.750 209.747 C 159.213 209.573, 153.925 209.430, 141 209.430 C 128.075 209.430, 122.787 209.573, 129.250 209.747 M 225.750 209.748 C 235.238 209.913, 250.762 209.913, 260.250 209.748 C 269.738 209.584, 261.975 209.450, 243 209.450 C 224.025 209.450, 216.262 209.584, 225.750 209.748 M 378.250 241.689 C 379.212 241.941, 380.788 241.941, 381.750 241.689 C 382.712 241.438, 381.925 241.232, 380 241.232 C 378.075 241.232, 377.288 241.438, 378.250 241.689 M 367.444 302 C 367.444 318.775, 367.581 325.637, 367.748 317.250 C 367.915 308.863, 367.915 295.137, 367.748 286.750 C 367.581 278.363, 367.444 285.225, 367.444 302 M 456.378 322 C 456.378 328.325, 456.541 330.913, 456.739 327.750 C 456.937 324.587, 456.937 319.413, 456.739 316.250 C 456.541 313.087, 456.378 315.675, 456.378 322 M 279.500 321 C 281.648 323.200, 283.631 325, 283.906 325 C 284.181 325, 282.648 323.200, 280.500 321 C 278.352 318.800, 276.369 317, 276.094 317 C 275.819 317, 277.352 318.800, 279.500 321 M 132.817 324.749 C 144.542 324.909, 163.442 324.909, 174.817 324.749 C 186.193 324.588, 176.600 324.457, 153.500 324.458 C 130.400 324.458, 121.093 324.589, 132.817 324.749 M 291 333.313 C 291 333.485, 292.462 334.948, 294.250 336.563 L 297.500 339.500 294.563 336.250 C 291.825 333.221, 291 332.540, 291 333.313 M 269 339.313 C 269 339.485, 270.462 340.948, 272.250 342.563 L 275.500 345.500 272.563 342.250 C 269.825 339.221, 269 338.540, 269 339.313 M 283 354.313 C 283 354.485, 284.462 355.948, 286.250 357.563 L 289.500 360.500 286.563 357.250 C 283.825 354.221, 283 353.540, 283 354.313 M 129.816 361.749 C 140.440 361.911, 157.540 361.911, 167.816 361.748 C 178.092 361.586, 169.400 361.453, 148.500 361.454 C 127.600 361.454, 119.192 361.587, 129.816 361.749 M 128.684 381.748 C 139.235 381.910, 156.785 381.911, 167.684 381.749 C 178.583 381.587, 169.950 381.455, 148.500 381.455 C 127.050 381.454, 118.133 381.587, 128.684 381.748 M 480.232 385 C 480.232 386.925, 480.438 387.712, 480.689 386.750 C 480.941 385.788, 480.941 384.212, 480.689 383.250 C 480.438 382.288, 480.232 383.075, 480.232 385 M 185 474 L 64.500 474.512 185.809 474.756 C 266.489 474.918, 306.911 474.665, 306.500 474 C 306.160 473.450, 305.796 473.110, 305.691 473.244 C 305.586 473.378, 251.275 473.718, 185 474 M 380.250 491.689 C 381.212 491.941, 382.788 491.941, 383.750 491.689 C 384.712 491.438, 383.925 491.232, 382 491.232 C 380.075 491.232, 379.288 491.438, 380.250 491.689 M 390.250 491.689 C 391.212 491.941, 392.788 491.941, 393.750 491.689 C 394.712 491.438, 393.925 491.232, 392 491.232 C 390.075 491.232, 389.288 491.438, 390.250 491.689" stroke="none" fill="#a0c8ff" fill-rule="evenodd"/><path d="M 382.500 21.031 C 376.413 22.057, 373.434 23.559, 368.545 28.066 C 361.247 34.792, 360.002 39.555, 359.990 60.788 C 359.981 77.339, 359.824 78.836, 357.598 83.617 C 355.021 89.150, 350.235 93.438, 344.252 95.573 C 339.288 97.345, 244.099 97.629, 240.684 95.883 C 237.570 94.290, 235.048 90.877, 235.022 88.219 C 235 85.955, 234.910 85.941, 222.812 86.219 L 210.624 86.500 209.774 89.788 C 208.838 93.404, 204.068 96.990, 200.184 96.996 C 195.336 97.004, 190.063 92.451, 190.022 88.219 C 190 85.955, 189.910 85.941, 177.812 86.219 L 165.624 86.500 164.774 89.788 C 164.233 91.878, 162.753 93.790, 160.712 95.034 C 157.644 96.905, 155.403 96.993, 110.747 96.996 L 63.995 97 64.247 285.250 L 64.500 473.500 184.826 473.754 L 305.151 474.008 302.520 470.754 C 275.675 437.559, 224.772 371.056, 222 365.558 C 218.629 358.872, 218.500 358.210, 218.503 347.558 C 218.506 337.483, 218.754 335.994, 221.298 330.808 C 228.966 315.177, 245.028 305.910, 259.187 308.947 C 269.802 311.223, 272.785 313.295, 287.726 328.768 L 301.951 343.500 301.976 264.886 C 301.991 215.998, 302.384 184.250, 303.015 180.921 C 305.100 169.927, 311.282 161.550, 320.764 156.869 C 324.723 154.915, 327.059 154.531, 335 154.531 C 345.973 154.531, 351.645 156.645, 358.166 163.166 C 366.939 171.939, 368 177.431, 368 214.068 L 368 243.038 370.750 242.269 C 372.262 241.846, 376.714 241.527, 380.641 241.559 C 394.036 241.670, 405.545 249.818, 410.607 262.774 C 410.666 262.924, 411.463 262.760, 412.378 262.408 C 413.919 261.817, 414.022 253.558, 413.771 151.135 L 413.500 40.500 410.843 35.500 C 407.522 29.249, 403.777 25.656, 398 23.175 C 392.470 20.801, 387.743 20.147, 382.500 21.031 M 113.500 133.421 C 109.735 135.107, 104.456 140.616, 103.061 144.315 C 102.421 146.014, 102 156.633, 102 171.105 C 102 192.704, 102.189 195.447, 103.903 198.790 C 106.308 203.481, 109.517 206.482, 114.232 208.452 C 117.221 209.701, 122.429 209.996, 141.218 209.978 C 161.712 209.959, 164.979 209.735, 168.500 208.110 C 173.341 205.876, 176.388 202.710, 178.452 197.768 C 180.713 192.357, 180.713 149.643, 178.452 144.232 C 176.482 139.517, 173.481 136.308, 168.790 133.903 C 165.436 132.183, 162.745 132.004, 140.790 132.039 C 122.688 132.068, 115.736 132.420, 113.500 133.421 M 205.150 134.527 C 201.350 137.725, 200.433 141.706, 202.407 146.432 C 205.112 152.906, 205.815 153, 251.500 153 C 295.026 153, 296.925 152.801, 300.369 147.883 C 303.332 143.653, 302.121 137.408, 297.633 133.772 C 295.686 132.195, 291.696 132.043, 251.827 132.022 L 208.153 132 205.150 134.527 M 206.304 190.935 C 204.169 192.251, 202.714 194.223, 201.919 196.877 C 200.879 200.347, 200.974 201.270, 202.669 204.173 C 206.026 209.921, 206.366 209.969, 243.346 209.985 C 273.146 209.998, 277.528 209.801, 280.010 208.335 C 285.704 204.972, 286.648 197.877, 282.083 192.766 L 279.166 189.500 244.333 189.233 C 211.174 188.979, 209.346 189.060, 206.304 190.935 M 109.313 247.102 C 101.884 249.252, 99.462 258.616, 104.923 264.077 L 107.846 267 188.500 267 L 269.154 267 272.077 264.077 C 277.724 258.430, 275.093 249.231, 267.205 247.040 C 262.479 245.727, 113.862 245.786, 109.313 247.102 M 107.357 304.992 C 101.440 307.379, 100.160 315.909, 104.918 321.234 L 107.836 324.500 152.845 324.500 C 196.975 324.500, 197.908 324.459, 200.677 322.404 C 204.676 319.435, 205.936 313.894, 203.598 309.552 C 202.616 307.728, 200.708 305.732, 199.359 305.118 C 196.392 303.766, 110.685 303.649, 107.357 304.992 M 108.388 361.963 C 102.686 364.313, 100.099 373.098, 103.772 377.633 C 107.224 381.894, 108.307 382, 148.484 382 C 190.369 382, 191.367 381.879, 193.805 376.528 C 195.807 372.135, 195.247 368.308, 192.083 364.766 L 189.166 361.500 149.833 361.296 C 128.200 361.184, 109.550 361.484, 108.388 361.963 M 110.016 419.024 C 102.045 420.898, 99.216 430.370, 104.923 436.077 L 107.846 439 165.469 439 L 223.091 439 225.505 436.586 C 231.700 430.391, 229.016 420.948, 220.500 418.975 C 215.591 417.837, 114.871 417.882, 110.016 419.024" stroke="none" fill="#ffffff" fill-rule="evenodd"/><path d="M 328.117 176.631 C 322.887 180.294, 323 178.142, 323 274.067 C 323 371.613, 323.254 367.295, 317.238 372.027 C 313.975 374.594, 307.105 374.615, 302.210 372.074 C 298.630 370.215, 289.645 361.415, 272.014 342.500 C 259.337 328.900, 255.349 326.990, 248.119 331.053 C 240.911 335.104, 237.341 343.774, 239.231 352.637 C 240.053 356.491, 245.783 364.372, 275.740 402.854 C 315.314 453.690, 317.291 456.123, 325.620 464.208 C 338.078 476.301, 353.556 485.273, 368.410 489.010 C 378.088 491.445, 394.548 491.655, 404 489.464 C 442.677 480.498, 470.294 447.224, 478.643 399.530 C 480.394 389.532, 481.830 322.797, 480.520 312.317 C 479.240 302.071, 471.326 297.195, 462.980 301.510 C 458.268 303.947, 457.541 306.355, 457 321.334 L 456.500 335.167 453.234 338.084 C 449.692 341.247, 445.865 341.807, 441.472 339.805 C 436.511 337.545, 436 334.952, 436 312.018 C 436 288.555, 435.344 285.263, 430.128 282.566 C 426.281 280.577, 422.688 280.580, 418.479 282.577 C 412.751 285.295, 412 288.890, 412 313.597 L 412 335.154 409.077 338.077 C 403.430 343.724, 394.231 341.093, 392.040 333.205 C 391.441 331.046, 391.009 316.967, 391.006 299.473 C 390.999 266.612, 390.998 266.602, 384.989 263.494 C 381.309 261.591, 377.681 261.597, 373.980 263.510 C 368.642 266.271, 368.539 266.942, 368 302.334 L 367.500 335.167 364.234 338.084 C 359.060 342.704, 350.870 341.399, 348.195 335.528 C 347.303 333.571, 347 314.152, 347 258.921 C 347 179.357, 347.056 180.254, 341.883 176.631 C 340.558 175.703, 337.593 175, 335 175 C 332.407 175, 329.442 175.703, 328.117 176.631" stroke="none" fill="#ffdcd5" fill-rule="evenodd"/><path d="M 53 20.939 C 44.727 22.616, 38.068 27.875, 33.926 36 C 31.911 39.955, 31.580 42.343, 31.196 55.703 C 30.956 64.064, 31.047 72.051, 31.399 73.453 L 32.038 76 94.585 76 C 138.681 76, 157.776 76.330, 159.316 77.117 C 162.311 78.649, 164.951 82.092, 164.976 84.500 C 164.995 86.407, 165.567 86.486, 177.317 86.195 L 189.638 85.891 190.802 82.671 C 192.051 79.216, 196.463 76, 199.954 76 C 204.911 76, 210.002 80.402, 209.998 84.684 C 209.997 86.357, 210.967 86.476, 222.317 86.195 L 234.638 85.891 235.796 82.695 C 238.084 76.380, 236.714 76.549, 290 76 L 338.500 75.500 339.103 56.500 C 339.737 36.544, 340.351 33.434, 345.456 24.300 L 347.859 20 202.180 20.115 C 122.056 20.178, 54.925 20.549, 53 20.939 M 230.817 152.749 C 242.542 152.909, 261.442 152.909, 272.817 152.749 C 284.193 152.588, 274.600 152.457, 251.500 152.458 C 228.400 152.458, 219.093 152.589, 230.817 152.749 M 302.238 263.424 L 302 343.349 299.250 340.928 C 296.717 338.698, 296.736 338.768, 299.500 341.820 L 302.500 345.132 302.761 305.141 C 302.905 283.145, 302.900 246.778, 302.750 224.325 C 302.600 201.871, 302.370 219.466, 302.238 263.424 M 150.324 246.750 C 171.677 246.900, 206.327 246.900, 227.324 246.750 C 248.321 246.599, 230.850 246.476, 188.500 246.476 C 146.150 246.476, 128.971 246.599, 150.324 246.750 M 391.441 302.500 C 391.442 318.450, 391.580 324.835, 391.748 316.689 C 391.916 308.543, 391.916 295.493, 391.747 287.689 C 391.579 279.885, 391.441 286.550, 391.441 302.500 M 252.250 308.689 C 253.213 308.941, 254.787 308.941, 255.750 308.689 C 256.712 308.438, 255.925 308.232, 254 308.232 C 252.075 308.232, 251.287 308.438, 252.250 308.689 M 139.320 418.749 C 154.072 418.905, 177.922 418.905, 192.320 418.749 C 206.719 418.593, 194.650 418.465, 165.500 418.466 C 136.350 418.466, 124.569 418.593, 139.320 418.749" stroke="none" fill="#e6dfe1" fill-rule="evenodd"/></svg>