<svg xmlns="http://www.w3.org/2000/svg" width="122" height="117" viewBox="0 0 122 117" version="1.1"><path d="M 68.924 17.750 L 66.500 20.500 69.250 18.076 C 71.820 15.810, 72.459 15, 71.674 15 C 71.495 15, 70.258 16.238, 68.924 17.750 M 57.500 27 C 57.840 27.550, 58.343 28, 58.618 28 C 58.893 28, 58.840 27.550, 58.500 27 C 58.160 26.450, 57.657 26, 57.382 26 C 57.107 26, 57.160 26.450, 57.500 27 M 63 28 C 63 28.733, 63.300 29.033, 63.667 28.667 C 64.033 28.300, 64.033 27.700, 63.667 27.333 C 63.300 26.967, 63 27.267, 63 28 M 29.750 30.745 C 34.837 30.927, 43.162 30.927, 48.250 30.745 C 53.337 30.564, 49.175 30.415, 39 30.415 C 28.825 30.415, 24.662 30.564, 29.750 30.745 M 29.750 38.745 C 34.837 38.927, 43.162 38.927, 48.250 38.745 C 53.337 38.564, 49.175 38.415, 39 38.415 C 28.825 38.415, 24.662 38.564, 29.750 38.745 M 57.405 42.155 C 56.962 42.870, 57.130 43.038, 57.845 42.595 C 58.998 41.883, 59.393 41, 58.559 41 C 58.316 41, 57.797 41.520, 57.405 42.155 M 70.500 64 C 70.840 64.550, 71.343 65, 71.618 65 C 71.893 65, 71.840 64.550, 71.500 64 C 71.160 63.450, 70.657 63, 70.382 63 C 70.107 63, 70.160 63.450, 70.500 64 M 32.250 75.747 C 39.263 75.919, 50.738 75.919, 57.750 75.747 C 64.763 75.575, 59.025 75.435, 45 75.435 C 30.975 75.435, 25.238 75.575, 32.250 75.747 M 70.405 79.155 C 69.962 79.870, 70.130 80.038, 70.845 79.595 C 71.998 78.883, 72.393 78, 71.559 78 C 71.316 78, 70.797 78.520, 70.405 79.155 M 69.750 86.737 C 72.638 86.939, 77.362 86.939, 80.250 86.737 C 83.138 86.535, 80.775 86.370, 75 86.370 C 69.225 86.370, 66.862 86.535, 69.750 86.737 M 64 99.728 L 64 108.456 72.500 100 C 77.175 95.349, 81 91.422, 81 91.272 C 81 91.122, 77.175 91, 72.500 91 L 64 91 64 99.728 M 59.370 102 C 59.370 107.775, 59.535 110.138, 59.737 107.250 C 59.939 104.362, 59.939 99.638, 59.737 96.750 C 59.535 93.862, 59.370 96.225, 59.370 102" stroke="none" fill="#d1d1fd" fill-rule="evenodd"/><path d="M 6.678 6.655 C 6.305 7.028, 6 9.707, 6 12.608 C 6 15.509, 5.550 18.160, 5 18.500 C 3.698 19.305, 3.698 24, 5 24 C 6.304 24, 6.304 31.694, 5 32.500 C 3.705 33.300, 3.695 38, 4.988 38 C 5.615 38, 6.071 51.399, 6.238 74.750 L 6.500 111.500 32.661 111.766 L 58.822 112.033 59.161 101.050 C 59.608 86.568, 59.568 86.608, 74.033 86.162 L 85 85.823 85 69.412 L 85 53 82.250 52.978 C 75.275 52.922, 66.444 45.905, 63.990 38.469 C 62.142 32.870, 63.222 25.577, 66.623 20.680 C 69.933 15.915, 76.769 12, 81.778 12 C 84.848 12, 85.106 11.766, 84.816 9.250 L 84.500 6.500 45.928 6.238 C 24.714 6.095, 7.051 6.282, 6.678 6.655 M 19.323 27.601 C 18.985 28.481, 19.337 29.600, 20.104 30.086 C 21.924 31.238, 56.076 31.238, 57.896 30.086 C 58.663 29.600, 59.015 28.481, 58.677 27.601 C 58.144 26.210, 55.556 26, 39 26 C 22.444 26, 19.856 26.210, 19.323 27.601 M 20.104 38.914 C 19.337 39.400, 18.985 40.519, 19.323 41.399 C 19.856 42.790, 22.444 43, 39 43 C 55.556 43, 58.144 42.790, 58.677 41.399 C 59.015 40.519, 58.663 39.400, 57.896 38.914 C 56.076 37.762, 21.924 37.762, 20.104 38.914 M 19 53 C 19 54.999, 19.436 55.029, 45.250 54.767 C 67.798 54.538, 71.500 54.288, 71.500 53 C 71.500 51.712, 67.798 51.462, 45.250 51.233 C 19.436 50.971, 19 51.001, 19 53 M 19.683 63.650 C 19.307 64.026, 19 64.933, 19 65.667 C 19 66.744, 24.096 67, 45.573 67 C 70.343 67, 72.124 66.881, 71.810 65.250 C 71.502 63.646, 69.339 63.478, 45.920 63.233 C 31.865 63.087, 20.059 63.274, 19.683 63.650 M 19.380 76.452 C 18.118 79.742, 20.025 80, 45.590 80 C 68.024 80, 71.136 79.809, 71.677 78.399 C 72.015 77.519, 71.663 76.400, 70.896 75.914 C 70.128 75.428, 58.348 75.024, 44.719 75.015 C 23.966 75.002, 19.847 75.236, 19.380 76.452" stroke="none" fill="#ecebfd" fill-rule="evenodd"/><path d="M 78.333 12.667 C 78.700 13.033, 79.300 13.033, 79.667 12.667 C 80.033 12.300, 79.733 12, 79 12 C 78.267 12, 77.967 12.300, 78.333 12.667 M 4.405 18.155 C 3.962 18.870, 4.130 19.038, 4.845 18.595 C 5.480 18.203, 6 17.684, 6 17.441 C 6 16.607, 5.117 17.002, 4.405 18.155 M 29.750 26.745 C 34.837 26.927, 43.162 26.927, 48.250 26.745 C 53.337 26.564, 49.175 26.415, 39 26.415 C 28.825 26.415, 24.662 26.564, 29.750 26.745 M 19 28 C 19 28.733, 19.300 29.033, 19.667 28.667 C 20.033 28.300, 20.033 27.700, 19.667 27.333 C 19.300 26.967, 19 27.267, 19 28 M 63.079 30.583 C 63.127 31.748, 63.364 31.985, 63.683 31.188 C 63.972 30.466, 63.936 29.603, 63.604 29.271 C 63.272 28.939, 63.036 29.529, 63.079 30.583 M 4.405 32.155 C 3.962 32.870, 4.130 33.038, 4.845 32.595 C 5.998 31.883, 6.393 31, 5.559 31 C 5.316 31, 4.797 31.520, 4.405 32.155 M 63.079 34.583 C 63.127 35.748, 63.364 35.985, 63.683 35.188 C 63.972 34.466, 63.936 33.603, 63.604 33.271 C 63.272 32.939, 63.036 33.529, 63.079 34.583 M 19.256 41 C 19.601 42.264, 22.636 42.506, 38.583 42.535 L 57.500 42.571 39.045 42.262 C 25.912 42.042, 20.338 41.600, 19.718 40.727 C 19.088 39.838, 18.960 39.914, 19.256 41 M 95.756 48.367 L 93.012 50.566 100.545 60.533 C 109.771 72.740, 111.509 74.333, 114.093 72.950 C 117.089 71.347, 116.385 68.807, 110.952 61.631 C 108.176 57.963, 106.195 54.493, 106.550 53.918 C 107.261 52.769, 104.291 49, 102.674 49 C 102.115 49, 100.947 48.363, 100.079 47.584 C 98.704 46.350, 98.145 46.452, 95.756 48.367 M 70.429 53 C 70.429 54.295, 70.767 54.633, 71.414 53.986 C 72.062 53.338, 72.062 52.662, 71.414 52.014 C 70.767 51.367, 70.429 51.705, 70.429 53 M 19 52.941 C 19 53.459, 19.445 54.157, 19.989 54.493 C 20.555 54.843, 20.723 54.442, 20.382 53.552 C 19.717 51.820, 19 51.503, 19 52.941 M 81.269 52.693 C 82.242 52.947, 83.592 52.930, 84.269 52.656 C 84.946 52.382, 84.150 52.175, 82.500 52.195 C 80.850 52.215, 80.296 52.439, 81.269 52.693 M 19.667 63.667 C 19.300 64.033, 19.007 64.821, 19.015 65.417 C 19.025 66.072, 19.340 66.014, 19.813 65.268 C 20.391 64.359, 27.133 63.961, 45.548 63.750 L 70.500 63.463 45.417 63.232 C 31.621 63.104, 20.033 63.300, 19.667 63.667 M 33.308 79.748 C 40.353 79.920, 51.603 79.919, 58.308 79.747 C 65.014 79.574, 59.250 79.433, 45.500 79.434 C 31.750 79.434, 26.264 79.576, 33.308 79.748 M 60.872 88.750 C 59.629 90.336, 59.664 90.371, 61.250 89.128 C 62.916 87.821, 63.445 87, 62.622 87 C 62.415 87, 61.627 87.787, 60.872 88.750 M 72.935 90.747 L 81.369 91.087 72.935 99.573 L 64.500 108.060 63.936 99.780 L 63.373 91.500 63.186 100.250 C 63.084 105.063, 63.347 109, 63.771 109 C 64.750 109, 82 91.711, 82 90.730 C 82 90.329, 78.063 90.092, 73.250 90.204 L 64.500 90.407 72.935 90.747" stroke="none" fill="#e1966d" fill-rule="evenodd"/><path d="M 74.990 18.250 C 69.825 21.765, 67.714 25.320, 67.294 31.209 C 66.553 41.592, 74.408 49.447, 84.791 48.706 C 90.706 48.284, 94.218 46.185, 97.838 40.908 C 100.995 36.305, 100.609 27.087, 97.057 22.288 C 92.270 15.819, 81.466 13.842, 74.990 18.250 M 87.007 30.493 L 81.581 35.987 78.493 32.993 C 75.402 29.997, 73 29.124, 73 30.997 C 73 32.457, 80.032 40, 81.393 40 C 82.635 40, 96 26.939, 96 25.725 C 96 23.449, 91.725 25.715, 87.007 30.493" stroke="none" fill="#30c3ef" fill-rule="evenodd"/><path d="M 4.223 3.557 C 2.327 4.884, 2 6.038, 2 11.390 C 2 18.188, 2.577 19.596, 4.658 17.869 C 5.477 17.189, 6 14.654, 6 11.366 L 6 5.977 45.250 6.238 L 84.500 6.500 84.816 9.250 C 85.059 11.355, 84.707 12.001, 83.316 12.006 C 68.512 12.051, 58.849 29.535, 66.455 42.514 C 69.572 47.832, 76.111 52, 81.338 52 L 85 52 85 69.500 L 85 87 74.155 87 C 59.978 87, 60 86.978, 60 101.329 L 60 112 33 112 L 6 112 6 76.582 C 6 57.102, 5.727 40.452, 5.393 39.582 C 5.059 38.712, 4.159 38, 3.393 38 C 2.227 38, 2 44.105, 2 75.443 L 2 112.887 4.223 114.443 C 6.106 115.762, 10.723 116, 34.459 116 L 62.473 116 75.737 102.764 L 89 89.528 89 70.634 L 89 51.740 98.089 63.616 C 103.087 70.147, 107.700 75.824, 108.339 76.230 C 110.631 77.689, 115.994 77.006, 118 75 C 121.345 71.655, 120.525 67.906, 114.750 60.133 C 111.863 56.247, 108.964 53.052, 108.309 53.034 C 105.479 52.954, 106.228 55.389, 110.952 61.631 C 116.385 68.807, 117.089 71.347, 114.093 72.950 C 111.509 74.333, 109.771 72.740, 100.545 60.533 L 93.012 50.566 95.756 48.367 C 98.145 46.452, 98.704 46.350, 100.079 47.584 C 102.564 49.813, 104.356 49.377, 103.501 46.750 C 102.674 44.208, 102.680 43.139, 103.574 33.906 C 104.077 28.714, 103.847 26.589, 102.490 23.906 C 100.095 19.174, 97.142 16.134, 92.750 13.882 C 89.686 12.311, 89 11.414, 89 8.980 C 89 7.333, 88.105 5.105, 87 4 C 85.068 2.068, 83.667 2, 45.723 2 C 11.792 2, 6.142 2.212, 4.223 3.557 M 74.990 18.250 C 69.825 21.765, 67.714 25.320, 67.294 31.209 C 66.553 41.592, 74.408 49.447, 84.791 48.706 C 90.706 48.284, 94.218 46.185, 97.838 40.908 C 100.995 36.305, 100.609 27.087, 97.057 22.288 C 92.270 15.819, 81.466 13.842, 74.990 18.250 M 2 27.868 C 2 32.308, 3.146 33.734, 4.959 31.549 C 6.670 29.487, 5.866 24.586, 3.750 24.185 C 2.319 23.914, 2 24.585, 2 27.868 M 87.007 30.493 L 81.581 35.987 78.493 32.993 C 75.402 29.997, 73 29.124, 73 30.997 C 73 32.457, 80.032 40, 81.393 40 C 82.635 40, 96 26.939, 96 25.725 C 96 23.449, 91.725 25.715, 87.007 30.493 M 20 28.500 C 20 29.781, 22.778 30, 39 30 C 55.222 30, 58 29.781, 58 28.500 C 58 27.219, 55.222 27, 39 27 C 22.778 27, 20 27.219, 20 28.500 M 20 40.500 C 20 41.781, 22.778 42, 39 42 C 55.222 42, 58 41.781, 58 40.500 C 58 39.219, 55.222 39, 39 39 C 22.778 39, 20 39.219, 20 40.500 M 20.187 52.733 C 20.502 54.366, 22.419 54.500, 45.514 54.500 C 67.057 54.500, 70.500 54.293, 70.500 53 C 70.500 51.713, 66.900 51.462, 45.173 51.233 C 21.416 50.982, 19.868 51.075, 20.187 52.733 M 20 65.500 C 20 66.794, 23.500 67, 45.500 67 C 67.500 67, 71 66.794, 71 65.500 C 71 64.206, 67.500 64, 45.500 64 C 23.500 64, 20 64.206, 20 65.500 M 19.694 76.639 C 17.763 78.570, 22.474 79, 45.559 79 C 67.507 79, 71 78.794, 71 77.500 C 71 76.206, 67.519 76, 45.667 76 C 31.733 76, 20.046 76.288, 19.694 76.639 M 64.200 91.200 C 62.872 92.528, 62.475 109, 63.771 109 C 64.750 109, 82 91.711, 82 90.730 C 82 89.462, 65.502 89.898, 64.200 91.200" stroke="none" fill="#000000" fill-rule="evenodd"/></svg>